<?xml version="1.0" encoding="utf-8"?>
<!-- Generator: Adobe Illustrator 23.1.0, SVG Export Plug-In . SVG Version: 6.00 Build 0)  -->
<svg version="1.1" id="Ebene_1" xmlns="http://www.w3.org/2000/svg" xmlns:xlink="http://www.w3.org/1999/xlink" x="0px" y="0px"
	 viewBox="0 0 437.8 214" style="enable-background:new 0 0 437.8 214;" xml:space="preserve">
<style type="text/css">
	.st0{fill:#000100;}
</style>
<g>
	<path class="st0" d="M184.8,72c-1-1-1.5-1-1.9-0.3l-0.5,1.2c-5,10.2-11,19.8-15.4,24.5c-0.9,1.4-2.4,2-1.9,0.2
		c1.4-6.3,7.2-18.7,7.3-18.9c0.3-0.5-0.2-1.6-1.1-2.5c-1-1-3-1.9-3.4-1.4l-4.9,7.1c-0.4,0.4,0,1.6,0.9,2.7l0.2,0.2
		c-0.2,0.6-0.5,1.1-0.7,1.7c-2.1,0.4-3.9,0.2-5.4-0.1c0.2-1.9,0.1-3.8-0.1-5.4c-0.3-1.6-0.6-3.1-1.3-4.5c-0.8-1.9-2-3.3-3.4-4.2
		c-0.9-0.5-1.7-0.7-2.7-0.6c-1.3,0.3-1.9,1.6-2.1,3.3c-0.1,1.6,0.3,3.9,1.2,6.1s2.4,4.4,4.3,6.3c-0.4,1.8-0.9,3.5-1.6,5.2
		c-1.2,2.9-2.6,5.2-4,6.7c-1,1.3-2.2,2.1-3.1,2.5c-0.9,0.3-1.5,0.3-2,0.1c-0.6-1.2-0.2-4.3,0.6-7.5c0.3-1.2,0.8-2.4,1.2-3.6
		c0.2-0.1,0.3-0.2,0.5-0.4c0.1-0.1,0.1-0.4,0-0.7c0.9-2.2,2-4.2,3.3-5.6c0.2-0.3,0.5-0.5,0.8-0.8c0.4-0.5,0.2-1.8-0.7-2.9
		s-2-1.6-2.4-1.2c-0.3,0.3-0.6,0.6-0.9,0.9c-2,2.2-3.6,5.6-4.8,9.1c-1.5,0.1-2.8-0.2-4.2-0.5c0.2-1.9,0.1-3.8-0.1-5.4
		c-0.3-1.6-0.6-3.1-1.3-4.5c-0.8-1.9-2-3.3-3.4-4.2c-0.9-0.5-1.7-0.7-2.7-0.6c-1.3,0.3-1.9,1.6-2.1,3.3c-0.1,1.6,0.3,3.9,1.2,6.1
		c0.9,2.2,2.4,4.4,4.3,6.3c-0.4,1.8-0.9,3.5-1.6,5.2c-1.2,2.9-2.6,5.2-4,6.7c-1,1.3-2.2,2.1-3.1,2.5c-0.9,0.3-1.5,0.3-2,0.1
		c-0.6-1.2-0.2-4.3,0.6-7.5c1.1-3.9,2.8-7.8,5-10.3c0.2-0.3,0.5-0.5,0.8-0.8c0.4-0.5,0.2-1.8-0.7-2.9c-0.9-1.1-2-1.6-2.4-1.2
		c-0.3,0.3-0.6,0.6-0.9,0.9c-1.5,1.7-2.8,4.1-3.9,6.8c-0.2,0-0.5,0.1-0.8,0c-1.4-0.2-1.4-2.9-2.5-4c-2.5-2.9-7.4-0.3-10.8,2.2
		l3.1-7.8c0.2-0.7-0.3-2-1.4-2.9c-1-0.9-2.1-1.1-2.3-0.5L93.8,107c-0.2,0.7,0.3,2,1.4,2.9c1,0.9,2.1,1.1,2.3,0.5
		c0.4-1.2,4.7-12.8,4.9-12.9c0,0,8.3-10.9,10.2-8.9c2.7,3,3.7,3.7,6.5,3.7c0.1,0,0.3,0,0.4,0c-0.1,0.4-0.3,0.9-0.4,1.3
		c-1.1,4.4-1.1,9.1,0.7,11.9c0.2,0.2,0.4,0.5,0.7,0.7c0.7,0.9,1.4,1.5,2.2,1.9c1.4,0.8,2.8,0.9,4.2,0.4c1.2-0.4,2.3-1.4,3.6-2.7
		c1.6-1.7,3-4.2,4.2-7.1c0.9-1.9,1.5-4.2,1.9-6.3c1.3,0.5,2.5,0.7,3.7,0.6c-0.6,3.8-0.5,7.6,1.1,10c0.2,0.2,0.4,0.5,0.7,0.7
		c0.7,0.9,1.4,1.5,2.2,1.9c1.4,0.8,2.8,0.9,4.2,0.4c1.2-0.4,2.3-1.4,3.6-2.7c1.6-1.7,3-4.2,4.2-7.1c0.9-1.9,1.5-4.2,1.9-6.3
		c1.3,0.5,2.7,0.7,4.2,0.6c-1.1,3.4-1.9,6.6-1.3,8.4c0.2,0.9,0.6,1.6,1.2,2.2c1.5,1.6,3.1,1.8,4.7,1c1-0.6,2.3-1.8,3.7-3.3
		c2.8-2.8,16.3-23.1,16.3-23.2C187.2,75.1,185.8,72.9,184.8,72z M133.2,87c-0.8-0.7-1.3-1.6-1.7-2.6c-0.6-1.4-0.8-2.7-0.7-3.9
		c0.1-1.1,0.4-1.9,1-1.9c0.3-0.1,0.6-0.1,0.8,0c0,0-0.2,0-0.1,0c0.2,0.6,0.5,1.6,0.6,2.7C133.3,83,133.4,85,133.2,87z M154.7,84.6
		c-0.8-0.7-1.3-1.6-1.7-2.6c-0.6-1.4-0.8-2.7-0.7-3.9c0.1-1.1,0.4-1.9,1-1.9c0.3-0.1,0.6-0.1,0.8,0c0,0-0.2,0-0.1,0
		c0.2,0.6,0.5,1.6,0.6,2.7C154.8,80.5,154.8,82.5,154.7,84.6z"/>
	<path class="st0" d="M97.1,95.6c-0.4,0.2-3.8,4.2-11.1,10.7c2.2-7.2,5.7-19.4,6.4-24.4c0.1-0.2,0.1-0.4,0.1-0.6c0-0.1,0-0.1,0-0.2
		c0-0.2,0-0.4,0-0.5c0-0.5,0-0.9-0.2-1C89.5,78,79.2,86.7,77.3,88c-8.8,5.9-17.5,12-25.9,18.5c-2.8,2.2-17.8,12.1-15,17.2
		c2.8,5.1,19.1-2.1,21.5-4.7c0.2-0.3,0.1-0.6-0.3-0.7c-1.6-0.1-3.4,0.9-4.9,1.3c-1.8,0.6-3.8,1.5-5.6,1.6c-3.7,0.2-3-0.6-2-2.8
		c1.3-3.1,5.4-6.2,7.8-8.4c5.5-5.1,11.6-9.7,17.7-14.1C72,94.9,86.4,83.4,88,85c0.4,0.4-1.7,5.9-1.8,6.4c-1.8,6.5-3.6,13-5.4,19.4
		c-6.4,5.4-14.7,11.9-25.4,19.2c-8.8,6.1-17.9,10.8-26,12.9c-7.5,2-14,1.7-18-1.6c-1.6-1.2-2.8-3.1-3.9-5.6l-0.2-0.5
		c-6-15.6-0.1-36.5,11.8-55.3c12.1-19.1,30.1-35.9,48.2-43.3l1.2-0.4c8.7-3.4,14.3-3.5,17.9-1.6c1.5,0.8,2.7,2.4,3.3,4.4
		c1,2.7,1.4,5.9,1.2,9.3c-0.5,9.3-4.6,19.2-9.4,22.7c-0.8,0.5-0.3,1.9,0.9,3c1.1,1.1,2.7,1.7,3.4,1.2C91,71.5,95.4,61,96,51.3
		c0.1-3.8-0.3-7.6-1.5-10.9c-1.4-3.9-4.2-7.3-8.3-9.5c-5-2.7-12.1-2.9-21.7,0.9l-1.2,0.4c-18.4,7.6-36.7,24.6-48.9,43.8
		c-12.2,19.4-18.2,41-11.8,57.7l0.4,0.7c1.6,3.9,3.9,7.1,6.7,9.4c6.3,5.2,14.5,6,23.5,3.7c8.4-2.2,18-6.5,26.5-13.1
		c7.3-5.7,13.8-11.5,19.3-16.8c-5,18.3-9.7,36.6-14.1,55c-3,12.8-6.4,25.8-7.4,39c0,0.7-0.1,1.5,0,2.2c0.1,0.4,0.6,0.3,0.7,0.1
		c2.9-4.2,3.6-12.3,5-17.5c2-7.7,3.9-15.5,5.9-23.2c5.1-20.3,10.1-40.6,15.3-60.9C94.1,101.8,99.1,94.4,97.1,95.6z M58.3,212.5
		c0-0.1,0.1-0.2,0.1-0.3C58.3,212.5,58.3,212.6,58.3,212.5z"/>
	<path class="st0" d="M437.2,54.1c-1-0.9-1.9,0.7-2.2,1.1c-0.1,0-10.3,11.6-13.9,9.7c0,0,1.2-3.3,2.3-6.3c0.5-1.7,1.1-3.2,1.3-4.4
		c0.4-2.8-0.3-4.8-3.6-5.4l-0.2,0c-2.2-0.4-7.1,4.2-11.9,9.2c-0.1-0.2-0.2-0.4-0.5-0.7l1.3-3.2c0.2-0.6-0.3-1.7-1.4-2.5
		c-0.9-0.8-2-0.9-2.3-0.3l-3.1,7.7c-2.2,0.7-4.2,0.7-5.8,0.6c0-1.6-0.2-3.3-0.5-4.6s-0.8-2.6-1.6-3.8c-0.9-1.5-2.2-2.7-3.7-3.3
		c-0.9-0.3-1.8-0.4-2.7-0.2c-1.2,0.4-1.7,1.5-1.8,3.1c0.1,1.4,0.6,3.3,1.7,5.2c1.1,1.8,2.6,3.6,4.7,5c-0.2,1.6-0.6,3.1-1.2,4.6
		c-1,2.6-2.1,4.7-3.4,6.2c-0.9,1.2-2,2-2.9,2.4c-0.8,0.3-1.5,0.4-2,0.2c-0.6-1-0.5-3.7,0-6.6c0.8-3.5,2.2-7,4.1-9.3
		c0.2-0.2,0.5-0.5,0.8-0.7c0.4-0.5,0-1.5-0.9-2.4c-1-0.9-2-1.2-2.4-0.8c-0.3,0.2-0.6,0.6-0.9,0.9c-2.1,2.4-3.6,6.2-4.4,9.9
		c-0.1,0.4-0.1,0.9-0.1,1.3c-3.2,3.3-7,6.7-9.2,6.7c-1.1-0.4-1.4-2.1-0.3-5.3c1.8-4.8,5-9.9,7.1-12.2c0.5-0.5,0-1.5-0.9-2.4
		c-1-0.9-2-1.2-2.5-0.7c-2.2,2.3-5.5,7.6-7.3,12.5c-0.5,1.3-0.8,2.7-1,3.9c-5.1,4.6-10.6,8.8-11.8,7c-1.4-2,1.4-8.6,6.5-20
		c0.2,0,0.4-0.3,0.3-0.7l0-0.1c1.7-3.7,3.5-7.5,5.3-11.2l7.4-0.9c0.7-0.1,0.7-1,0-2c-0.6-0.9-1.9-1.6-2.6-1.6l-2.8,0.3
		c6.7-13.6,13.1-25.3,13.1-25.4c0.3-0.5-0.3-1.6-1.2-2.4c-1-0.9-2-1-2.3-0.5c-0.1,0.1-7.5,13.8-14.6,28.9l-21.9,2.5
		c-1.7,0.2-0.9,0.8-0.8,1.4s1.6,2.7,2.7,2.7c0,0,0,0,0,0c7-0.1,14.2,0.9,14.6,5.1c0,0-0.6,1.3-0.5,1.3c-2.9,6.5-5.2,12.5-6.5,17.3
		c-2.3,2-4.2,3.3-4.5,2.4c-1-2.9,0-5.9,0.1-6.5c0.2-0.6-0.3-1.5-1.1-2.3c-1.1-0.9-2-1.1-2.4-0.6c0,0-8.2,12.5-11.8,14
		c0.6-5.1,2.3-9.2,5.9-12.9c1.7-1.8,6.6-4.9,8.9-3.1c0.5,0.9,1.7,1.8,2.6,1.9c0.9,0.1,1.1-0.6,0.6-1.6c-2.5-6.1-11.1-4.9-15.4-0.3
		c-2.5,2.6-4.5,6.2-5.5,9.4c-0.1,0.4-0.2,0.8-0.3,1.2c-5.5,5-11.8,10.1-13.1,8.2c-1.4-2,1.4-8.6,6.5-20c0.2,0,0.4-0.3,0.3-0.7l0-0.1
		c1.7-3.7,3.5-7.5,5.3-11.2l11.2-1.3c0.7-0.1,0.7-1,0-2c-0.6-0.9-1.9-1.6-2.6-1.6l-6.6,0.8c6.7-13.6,13.1-25.3,13.1-25.4
		c0.3-0.5-0.3-1.6-1.2-2.4c-1-0.9-2-1-2.3-0.5c-0.1,0.1-7.5,13.8-14.6,28.9l-35.5,4.1c-0.7,0.1-0.7,1,0,1.9c0.6,1,1.9,1.8,2.6,1.7
		c0,0,26.7-4.2,27.5,4.1c0,0-0.6,1.3-0.5,1.3c-5.4,12.2-9,23.1-7.1,26c3.3,4.8,10.7-0.4,16.9-6.4c0.3,0.8,0.8,1.5,1.4,2.2
		c0.7,0.6,1.4,1.1,2.3,1.4c2.4,0.8,5.9-3,9.3-7.1c0.5,5.3,4.4,6.4,8.9,3.2c0,0,0,0,0,0c0,0.9,0.2,1.7,0.5,2.2
		c3.1,4.5,9.8,0.2,15.8-5.3c0.1-0.1,0.2-0.2,0.2-0.2c0.2,0.5,0.4,0.9,0.7,1.3c2.8,4,8.4,0,13-4.7c0.2,1.9,0.8,3.6,1.8,4.9
		c0.2,0.2,0.5,0.4,0.7,0.6c0.7,0.7,1.5,1.1,2.3,1.5c1.5,0.6,2.8,0.6,4.1,0c1.1-0.4,2.2-1.4,3.3-2.7c1.4-1.6,2.6-3.9,3.6-6.5
		c0.8-1.7,1.2-3.7,1.4-5.6c1.4,0.3,2.9,0.4,4.4,0.1l-2.9,7.1c-0.2,0.6,0.4,1.6,1.4,2.5c0.9,0.7,1.9,0.9,2.2,0.4
		c0.4-0.5,12.8-15.8,18.4-19.7c-0.2,0.9-0.5,1.8-0.9,2.7c-1.5,4.4-3.3,9.4,1.8,12c5.9,3,15.7-12.2,15.7-12.2
		C437.6,55.2,438.2,54.9,437.2,54.1z M348.2,45.9l13.2-1c-0.9,1.9-1.7,3.7-2.5,5.5C356.9,48.4,351.5,46.8,348.2,45.9z M308.8,50.4
		l13.2-1c-0.9,1.9-1.7,3.7-2.5,5.5C317.5,52.9,312.1,51.3,308.8,50.4z M391.8,56.4c-0.7-1.1-1-2.3-1-3.3c0-1,0.2-1.7,0.9-1.7
		c0.3-0.1,0.6-0.2,0.7-0.1c0,0-0.2,0-0.1,0c0.3,0.5,0.6,1.4,0.8,2.3c0.4,1.4,0.6,3.1,0.6,4.9C392.8,57.9,392.2,57.2,391.8,56.4z"/>
	<path class="st0" d="M379.4,50.2c3.8-0.1,5.9-7,2.2-6.3C377.4,44.8,375.6,50.4,379.4,50.2z"/>
	<path class="st0" d="M279.2,73.3c-6.6-2.6-18.8-8-23.9-10.7C225.1,45.9,232.1,8.5,277.9,4c12-1.2,23.8,3.4,24.7,13.7
		c0.4,4.4-1.3,10-5.7,16.7c0,0,0,0.1,0,0.1c-0.5,0.8-0.1,1.9,1,2.9c1,1,2.1,1.2,2.8,0.3c4.5-7,6.2-13,5.8-17.9
		C305,3.8,288.2-1.5,274.3,0.3C236,4,213.7,44,254.6,66.6c5.7,3.1,16.1,7.8,26.5,12c11.4,4.6,22.5,8.4,26.4,16.4
		c8.5,17.1-15.2,35.2-25.4,41.8c-21.4,13.6-65.3,29.9-89.2,16.7c-3.3-2-5.4-3.8-7.1-6.2c-1.4-2.1-3.9-5.2-3.2-12.6
		c1.3-14.2,4.8-22.2,12-33.8c8.1-1.1,19.1-12.9,21-18.3c0.2-0.8,0.2-1.3-0.8-2.2c-1.1-0.9-2,0.1-2.3,0.9c-1.1,3.4-7.5,9.2-13.5,12.6
		c6.2-9.2,9.5-12.2,11.8-14.9c2.6-3,1.7-4.4-1.4-1.2c-6.4,6.3-11.4,12.5-15.5,18.4c-4.6,1.3-7.6-0.3-5.6-7.8c0.3,0,5.9-1.4,10.5-5
		c2.4-1.8,4.2-4.8,5.1-7.5c0.4-1.3,0.7-2.5,0.7-3.6c0-1.5-0.6-3.1-1.8-4.3c-0.9-0.9-1.8-1.4-2.8-1.6c-1.2-0.1-3.9,1.7-6.7,4.6
		c-2.1,2.3-4.2,5.1-6.1,8.1c-1.8,3.1-3,6.5-3.2,9.7c-0.3,4.9,2.5,9.7,6.4,11.6c0.2,0.1,0.4,0.1,0.6,0.2c-11.1,18-12.7,33-10.7,41.5
		l0.1,0.4c1.6,6.3,5,13.1,14.4,17.5c25.7,13.2,69.9-2.4,92.3-16.8c12.7-8.2,35.5-28.2,25.6-48.6C306.5,82,292.5,78.5,279.2,73.3z
		 M196.7,74.6c1.4-1.6,2.7-2.7,3.8-3.5c-0.1,0.5-0.2,0.9-0.4,1.4c-0.9,2.5-2.5,5.3-4.6,7c-1.6,1.1-3.1,2-4.5,2.7
		C192.6,79.4,194.8,76.8,196.7,74.6z"/>
</g>
</svg>
