<?xml version="1.0" encoding="utf-8"?>
<!-- Generator: Adobe Illustrator 23.1.0, SVG Export Plug-In . SVG Version: 6.00 Build 0)  -->
<svg version="1.1" id="Ebene_1" xmlns="http://www.w3.org/2000/svg" xmlns:xlink="http://www.w3.org/1999/xlink" x="0px" y="0px"
	 viewBox="0 0 119 109" style="enable-background:new 0 0 119 109;" xml:space="preserve">
<style type="text/css">
	.st0{enable-background:new    ;}
</style>
<g class="st0">
	<path d="M53.1,11.5v14.6c-5.6,1.5-9.9,3.7-12.9,6.5s-5.3,6-6.8,9.7c-1.5,3.7-2.5,9.2-3,16.4c7.3,0,12.7,2.1,16.2,6.2
		c3.5,4.1,5.2,8.6,5.2,13.3c0,5.5-1.9,10-5.8,13.8c-3.8,3.7-8.3,5.6-13.4,5.6c-6.8,0-12.5-2.8-17.3-8.5c-4.8-5.7-7.2-13.5-7.2-23.4
		c0-8.7,1.9-16.9,5.7-24.5c3.8-7.7,9-14.2,15.4-19.7C35.8,15.9,43.7,12.6,53.1,11.5z M110.8,11.5v14.6c-5.6,1.5-9.9,3.7-12.8,6.5
		c-3,2.8-5.2,6-6.7,9.7c-1.5,3.7-2.5,9.2-3,16.4c7.3,0,12.7,2.1,16.1,6.2s5.2,8.6,5.2,13.3c0,5.5-1.9,10-5.8,13.8
		c-3.8,3.7-8.3,5.6-13.5,5.6c-6.6,0-12.3-2.8-17.1-8.5C68.4,83.3,66,75.5,66,65.6c0-8.7,1.9-16.9,5.6-24.5
		c3.8-7.7,8.9-14.2,15.4-19.7C93.5,15.9,101.5,12.6,110.8,11.5z"/>
</g>
</svg>
